<svg xmlns="http://www.w3.org/2000/svg" xmlns:xlink="http://www.w3.org/1999/xlink" width="500" zoomAndPan="magnify" viewBox="0 0 375 374.999991" height="500" preserveAspectRatio="xMidYMid meet" version="1.0"><defs><g/><clipPath id="025c224ffc"><path d="M 43.875 109.769531 L 132.015625 109.769531 L 132.015625 197.910156 L 43.875 197.910156 Z M 43.875 109.769531 " clip-rule="nonzero"/></clipPath><clipPath id="4f8cf029fa"><path d="M 87.945312 109.769531 C 63.605469 109.769531 43.875 129.5 43.875 153.839844 C 43.875 178.179688 63.605469 197.910156 87.945312 197.910156 C 112.285156 197.910156 132.015625 178.179688 132.015625 153.839844 C 132.015625 129.5 112.285156 109.769531 87.945312 109.769531 " clip-rule="nonzero"/></clipPath><clipPath id="9581c5487d"><path d="M 42 109.527344 L 134 109.527344 L 134 200.800781 L 42 200.800781 Z M 42 109.527344 " clip-rule="nonzero"/></clipPath><clipPath id="004abbc271"><path d="M 84 109.527344 L 98 109.527344 L 98 132 L 84 132 Z M 84 109.527344 " clip-rule="nonzero"/></clipPath></defs><g clip-path="url(#025c224ffc)"><g clip-path="url(#4f8cf029fa)"><path fill="#2787bf" d="M 43.875 109.769531 L 132.015625 109.769531 L 132.015625 197.910156 L 43.875 197.910156 Z M 43.875 109.769531 " fill-opacity="1" fill-rule="nonzero"/></g></g><path fill="#faf6f3" d="M 94.816406 130.835938 C 94.785156 133.679688 93.011719 136.402344 90.316406 137.363281 C 87.46875 138.382812 84.375 137.570312 82.429688 135.234375 C 80.585938 133.023438 80.386719 129.714844 81.875 127.238281 C 83.351562 124.78125 86.347656 123.40625 89.152344 123.980469 C 92.453125 124.65625 94.777344 127.5 94.816406 130.835938 C 94.835938 132.769531 97.84375 132.777344 97.820312 130.835938 C 97.773438 126.617188 95.148438 122.910156 91.203125 121.441406 C 87.367188 120.011719 82.765625 121.277344 80.1875 124.453125 C 77.554688 127.699219 77.101562 132.328125 79.28125 135.953125 C 81.464844 139.585938 85.722656 141.40625 89.859375 140.609375 C 94.476562 139.71875 97.769531 135.472656 97.820312 130.835938 C 97.84375 128.902344 94.835938 128.898438 94.816406 130.835938 " fill-opacity="1" fill-rule="nonzero"/><path fill="#faf6f3" d="M 87.847656 169.921875 C 83.628906 169.96875 79.925781 172.597656 78.457031 176.546875 C 77.027344 180.382812 78.292969 184.988281 81.464844 187.566406 C 84.710938 190.203125 89.335938 190.652344 92.957031 188.472656 C 96.589844 186.289062 98.414062 182.027344 97.613281 177.886719 C 96.722656 173.265625 92.480469 169.976562 87.847656 169.921875 C 85.914062 169.902344 85.910156 172.90625 87.847656 172.929688 C 90.6875 172.960938 93.40625 174.734375 94.371094 177.433594 C 95.386719 180.28125 94.574219 183.375 92.242188 185.324219 C 90.03125 187.167969 86.726562 187.363281 84.25 185.878906 C 81.792969 184.402344 80.421875 181.402344 80.996094 178.59375 C 81.671875 175.296875 84.511719 172.96875 87.847656 172.929688 C 89.777344 172.90625 89.785156 169.902344 87.847656 169.921875 " fill-opacity="1" fill-rule="nonzero"/><g clip-path="url(#9581c5487d)"><path fill="#faf6f3" d="M 87.847656 109.527344 C 78.492188 109.546875 69.214844 112.453125 61.601562 117.910156 C 54.152344 123.253906 48.429688 130.730469 45.265625 139.34375 C 42.003906 148.230469 41.671875 158.171875 44.257812 167.273438 C 46.75 176.039062 51.945312 184.007812 58.980469 189.796875 C 66.1875 195.726562 75.039062 199.320312 84.339844 200.058594 C 93.730469 200.800781 103.296875 198.527344 111.34375 193.628906 C 119.0625 188.929688 125.355469 181.898438 129.082031 173.65625 C 133.023438 164.933594 134.128906 155.132812 132.234375 145.746094 C 130.425781 136.773438 125.777344 128.421875 119.167969 122.105469 C 112.558594 115.785156 104.039062 111.496094 94.992188 110.097656 C 92.625 109.730469 90.242188 109.53125 87.847656 109.527344 C 85.914062 109.523438 85.910156 112.53125 87.847656 112.535156 C 96.652344 112.554688 105.226562 115.285156 112.425781 120.402344 C 119.296875 125.285156 124.71875 132.386719 127.589844 140.316406 C 130.632812 148.707031 130.972656 157.90625 128.539062 166.476562 C 126.195312 174.71875 121.335938 182.070312 114.726562 187.554688 C 108.125 193.03125 99.714844 196.425781 91.160156 197.066406 C 82.332031 197.726562 73.507812 195.664062 65.945312 191.082031 C 58.652344 186.664062 52.835938 180.085938 49.28125 172.304688 C 45.636719 164.324219 44.621094 155.050781 46.375 146.453125 C 48.105469 137.964844 52.402344 130.203125 58.648438 124.230469 C 64.882812 118.269531 72.855469 114.355469 81.402344 113.011719 C 83.476562 112.6875 85.6875 112.539062 87.847656 112.535156 C 89.78125 112.53125 89.785156 109.523438 87.847656 109.527344 " fill-opacity="1" fill-rule="nonzero"/></g><path fill="#faf6f3" d="M 102.125 114.992188 C 102.34375 115.230469 102.554688 115.472656 102.761719 115.71875 C 102.894531 115.875 103.027344 116.035156 103.15625 116.195312 C 103.234375 116.292969 103.3125 116.390625 103.390625 116.492188 C 103.519531 116.65625 103.234375 116.285156 103.363281 116.460938 C 103.414062 116.523438 103.460938 116.585938 103.507812 116.652344 C 104.347656 117.777344 105.105469 118.96875 105.761719 120.210938 C 107.46875 123.441406 108.402344 127.128906 108.082031 130.855469 C 107.910156 132.855469 107.332031 134.855469 106.460938 136.664062 C 105.761719 138.109375 104.75 139.683594 103.867188 140.832031 C 103.300781 141.574219 102.453125 142.609375 101.6875 143.386719 C 101.308594 143.773438 100.914062 144.140625 100.5 144.492188 C 100.296875 144.664062 100.089844 144.832031 99.878906 145 C 99.746094 145.101562 99.9375 144.953125 99.949219 144.945312 C 99.882812 144.992188 99.820312 145.042969 99.757812 145.089844 C 99.625 145.1875 99.492188 145.285156 99.359375 145.378906 C 96.492188 147.445312 93.394531 149.203125 90.40625 151.078125 C 86.851562 153.308594 83.273438 155.519531 79.8125 157.898438 C 77.667969 159.371094 75.503906 160.917969 73.707031 162.816406 C 71.46875 165.1875 69.394531 167.816406 67.90625 170.730469 C 64.304688 177.773438 64.027344 186.597656 67.476562 193.753906 C 67.683594 194.183594 67.902344 194.601562 68.140625 195.015625 C 69.101562 196.695312 71.699219 195.179688 70.734375 193.496094 C 70.488281 193.066406 70.257812 192.628906 70.046875 192.183594 C 69.984375 192.054688 69.925781 191.925781 69.863281 191.796875 C 69.835938 191.734375 69.675781 191.371094 69.734375 191.5 C 69.785156 191.625 69.621094 191.226562 69.601562 191.171875 C 69.53125 190.992188 69.460938 190.8125 69.394531 190.628906 C 68.855469 189.136719 68.453125 187.554688 68.25 185.996094 C 67.691406 181.757812 68.234375 177.1875 70 173.28125 C 71.394531 170.203125 73.320312 167.703125 75.546875 165.253906 C 76.296875 164.429688 77.113281 163.679688 77.972656 162.972656 C 78.210938 162.777344 78.449219 162.585938 78.691406 162.394531 C 78.5 162.546875 78.765625 162.339844 78.828125 162.292969 C 78.980469 162.179688 79.132812 162.0625 79.285156 161.949219 C 79.890625 161.5 80.503906 161.0625 81.125 160.636719 C 84.570312 158.253906 88.140625 156.050781 91.6875 153.820312 C 94.71875 151.917969 97.859375 150.132812 100.773438 148.050781 C 102.714844 146.664062 104.332031 145.066406 105.808594 143.195312 C 108.183594 140.1875 110.09375 136.808594 110.800781 133 C 112.105469 125.9375 109.398438 118.921875 104.859375 113.558594 C 104.664062 113.324219 104.457031 113.09375 104.253906 112.867188 C 102.945312 111.433594 100.824219 113.566406 102.125 114.992188 " fill-opacity="1" fill-rule="nonzero"/><path fill="#faf6f3" d="M 92.695312 183.460938 C 90.359375 183.46875 88.125 182.515625 86.542969 180.785156 C 84.960938 179.050781 84.316406 176.683594 84.53125 174.375 C 84.609375 173.515625 83.742188 172.78125 82.9375 172.78125 C 82.007812 172.78125 81.421875 173.515625 81.339844 174.375 C 81.050781 177.515625 82.167969 180.71875 84.289062 183.039062 C 86.417969 185.367188 89.5625 186.660156 92.695312 186.652344 C 94.75 186.644531 94.753906 183.457031 92.695312 183.460938 " fill-opacity="1" fill-rule="nonzero"/><path fill="#faf6f3" d="M 86.242188 172.507812 C 86.273438 177.199219 90.261719 181.066406 94.992188 180.734375 C 95.851562 180.675781 96.585938 180.042969 96.585938 179.140625 C 96.585938 178.324219 95.855469 177.484375 94.992188 177.542969 C 91.996094 177.753906 89.453125 175.566406 89.433594 172.507812 C 89.417969 170.457031 86.230469 170.453125 86.242188 172.507812 " fill-opacity="1" fill-rule="nonzero"/><path fill="#faf6f3" d="M 104.882812 130.878906 C 104.992188 123.535156 101.9375 116.261719 96.605469 111.207031 C 95.117188 109.792969 92.859375 112.046875 94.351562 113.460938 C 99.097656 117.964844 101.789062 124.335938 101.695312 130.878906 C 101.664062 132.933594 104.855469 132.933594 104.882812 130.878906 " fill-opacity="1" fill-rule="nonzero"/><path fill="#faf6f3" d="M 102.167969 138.472656 C 102.261719 138.378906 102.355469 138.285156 102.449219 138.195312 C 102.601562 138.046875 102.714844 137.878906 102.777344 137.679688 C 102.875 137.488281 102.921875 137.285156 102.914062 137.066406 C 102.921875 136.847656 102.875 136.640625 102.777344 136.449219 C 102.714844 136.253906 102.601562 136.082031 102.449219 135.9375 C 102.339844 135.855469 102.234375 135.769531 102.125 135.6875 C 101.875 135.542969 101.609375 135.472656 101.320312 135.46875 C 101.179688 135.488281 101.039062 135.507812 100.898438 135.527344 C 100.625 135.601562 100.390625 135.738281 100.191406 135.9375 C 100.101562 136.03125 100.007812 136.125 99.914062 136.214844 C 99.757812 136.359375 99.648438 136.53125 99.585938 136.730469 C 99.484375 136.921875 99.4375 137.125 99.445312 137.34375 C 99.4375 137.5625 99.484375 137.769531 99.585938 137.957031 C 99.648438 138.15625 99.757812 138.328125 99.914062 138.472656 C 100.019531 138.554688 100.128906 138.640625 100.238281 138.722656 C 100.484375 138.867188 100.753906 138.9375 101.042969 138.941406 C 101.183594 138.921875 101.324219 138.902344 101.464844 138.882812 C 101.734375 138.804688 101.96875 138.667969 102.167969 138.472656 " fill-opacity="1" fill-rule="nonzero"/><path fill="#faf6f3" d="M 96.578125 143.125 C 98.632812 143.125 98.636719 139.933594 96.578125 139.933594 C 94.527344 139.933594 94.523438 143.125 96.578125 143.125 " fill-opacity="1" fill-rule="nonzero"/><path fill="#faf6f3" d="M 90.863281 143.125 C 83.667969 146.039062 77.070312 150.300781 71.546875 155.773438 C 66.019531 161.246094 61.429688 167.996094 59.609375 175.644531 C 58.527344 180.195312 58.425781 184.953125 59.539062 189.507812 C 60.027344 191.5 63.101562 190.65625 62.613281 188.660156 C 59.007812 173.894531 69.601562 159.90625 81.101562 151.957031 C 84.414062 149.667969 87.976562 147.710938 91.710938 146.199219 C 92.507812 145.878906 93.070312 145.136719 92.824219 144.238281 C 92.617188 143.480469 91.664062 142.796875 90.863281 143.125 " fill-opacity="1" fill-rule="nonzero"/><path fill="#faf6f3" d="M 58.59375 162.972656 C 54.722656 168.792969 52.714844 175.796875 52.773438 182.78125 C 52.789062 184.832031 55.976562 184.835938 55.960938 182.78125 C 55.910156 176.320312 57.765625 169.960938 61.347656 164.582031 C 61.824219 163.863281 61.488281 162.816406 60.777344 162.398438 C 59.992188 161.941406 59.074219 162.253906 58.59375 162.972656 " fill-opacity="1" fill-rule="nonzero"/><path fill="#faf6f3" d="M 63.957031 160.003906 C 66.007812 160.003906 66.011719 156.8125 63.957031 156.8125 C 61.902344 156.8125 61.898438 160.003906 63.957031 160.003906 " fill-opacity="1" fill-rule="nonzero"/><path fill="#faf6f3" d="M 85.941406 137.921875 C 78.476562 141.488281 71.726562 146.554688 66.203125 152.71875 C 65.628906 153.363281 65.574219 154.34375 66.203125 154.976562 C 66.789062 155.558594 67.882812 155.621094 68.460938 154.976562 C 73.820312 148.988281 80.304688 144.140625 87.550781 140.675781 C 88.328125 140.304688 88.53125 139.191406 88.125 138.492188 C 87.660156 137.699219 86.722656 137.546875 85.941406 137.921875 " fill-opacity="1" fill-rule="nonzero"/><g clip-path="url(#004abbc271)"><path fill="#faf6f3" d="M 97.84375 129.675781 C 97.242188 121.964844 93.375 114.898438 87.265625 110.179688 C 86.582031 109.652344 85.480469 110.078125 85.082031 110.753906 C 84.601562 111.578125 84.972656 112.40625 85.65625 112.933594 C 90.796875 116.90625 94.152344 123.207031 94.652344 129.675781 C 94.722656 130.535156 95.339844 131.269531 96.25 131.269531 C 97.058594 131.269531 97.910156 130.539062 97.84375 129.675781 " fill-opacity="1" fill-rule="nonzero"/></g><path fill="#faf6f3" d="M 80.324219 134.726562 C 67.386719 139.503906 56.558594 149.492188 50.628906 161.945312 C 48.949219 165.472656 47.640625 169.171875 46.796875 172.988281 C 46.609375 173.828125 47.050781 174.714844 47.910156 174.949219 C 48.710938 175.171875 49.683594 174.679688 49.871094 173.835938 C 52.679688 161.167969 60.648438 149.824219 71.492188 142.71875 C 74.527344 140.726562 77.773438 139.058594 81.171875 137.800781 C 81.980469 137.503906 82.527344 136.71875 82.289062 135.839844 C 82.074219 135.0625 81.136719 134.425781 80.324219 134.726562 " fill-opacity="1" fill-rule="nonzero"/><path fill="#faf6f3" d="M 86.863281 122.710938 C 87.335938 120.167969 85.421875 118.324219 83.832031 116.613281 C 82.285156 114.949219 80.628906 113.398438 78.882812 111.945312 C 78.21875 111.398438 77.277344 111.296875 76.628906 111.945312 C 76.0625 112.511719 75.960938 113.648438 76.628906 114.203125 C 78.109375 115.433594 79.527344 116.738281 80.871094 118.125 C 81.523438 118.800781 82.160156 119.496094 82.777344 120.207031 C 83.105469 120.582031 83.890625 121.316406 83.789062 121.859375 C 83.632812 122.707031 84.023438 123.582031 84.902344 123.824219 C 85.679688 124.035156 86.707031 123.5625 86.863281 122.710938 " fill-opacity="1" fill-rule="nonzero"/><path fill="#faf6f3" d="M 46.53125 163.4375 C 48.179688 159.046875 50.371094 154.859375 53.113281 151.050781 C 54.023438 149.789062 54.960938 148.621094 56.09375 147.359375 C 57.550781 145.734375 59.03125 144.121094 60.574219 142.574219 C 63.984375 139.15625 67.773438 136.355469 72.140625 134.273438 C 75.390625 132.726562 81.792969 130.425781 79.90625 125.578125 C 79.429688 124.347656 78.597656 123.339844 77.75 122.347656 C 77.027344 121.503906 76.292969 120.683594 75.488281 119.917969 C 73.503906 118.027344 71.234375 116.441406 68.804688 115.179688 C 66.984375 114.238281 65.371094 116.992188 67.195312 117.9375 C 69.226562 118.988281 71.136719 120.253906 72.828125 121.796875 C 74.210938 123.058594 75.683594 124.511719 76.644531 126.121094 C 76.886719 126.523438 76.890625 126.5 77 126.949219 C 77.078125 127.261719 77.011719 127.046875 77.007812 126.976562 C 77.015625 127.082031 77.011719 127.179688 77.011719 127.285156 C 77.011719 127.304688 76.972656 127.546875 77.003906 127.378906 C 77.042969 127.183594 76.945312 127.566406 76.933594 127.601562 C 76.84375 127.902344 76.894531 127.691406 76.925781 127.632812 C 76.878906 127.722656 76.828125 127.808594 76.777344 127.894531 C 76.773438 127.898438 76.636719 128.105469 76.726562 127.980469 C 76.828125 127.84375 76.625 128.097656 76.601562 128.125 C 76.300781 128.445312 75.996094 128.699219 75.730469 128.875 C 73.808594 130.164062 71.597656 130.972656 69.535156 132.003906 C 65.339844 134.109375 61.628906 137.003906 58.320312 140.320312 C 55.621094 143.023438 53 145.863281 50.726562 148.9375 C 47.640625 153.105469 45.273438 157.742188 43.457031 162.589844 C 43.152344 163.394531 43.792969 164.335938 44.570312 164.550781 C 45.464844 164.796875 46.226562 164.246094 46.53125 163.4375 " fill-opacity="1" fill-rule="nonzero"/><path fill="#faf6f3" d="M 46.28125 147.410156 C 49.058594 142.828125 52.746094 138.769531 57.089844 135.621094 C 59.355469 133.976562 61.78125 132.730469 64.242188 131.417969 C 65.546875 130.722656 66.820312 129.78125 67.53125 128.449219 C 68.242188 127.121094 68.28125 125.65625 67.894531 124.222656 C 67.492188 122.722656 66.625 121.5625 65.238281 120.863281 C 63.742188 120.109375 62.292969 119.351562 60.609375 119.148438 C 59.753906 119.046875 59.015625 119.957031 59.015625 120.742188 C 59.015625 121.691406 59.75 122.234375 60.609375 122.339844 C 61.546875 122.453125 62.707031 123.152344 63.628906 123.617188 C 63.855469 123.730469 64.078125 123.832031 64.285156 123.972656 C 64.195312 123.910156 64.402344 124.121094 64.433594 124.167969 C 64.714844 124.578125 64.800781 124.917969 64.90625 125.4375 C 65.070312 126.253906 64.800781 127.089844 64.019531 127.773438 C 63.078125 128.597656 61.816406 129.058594 60.714844 129.628906 C 56.234375 131.960938 52.140625 135.121094 48.730469 138.847656 C 46.777344 140.988281 45.03125 143.324219 43.527344 145.800781 C 42.460938 147.5625 45.21875 149.167969 46.28125 147.410156 " fill-opacity="1" fill-rule="nonzero"/><g fill="#ffffff" fill-opacity="1"><g transform="translate(106.96266, 163.629438)"><g><path d="M 1.445312 0 L 3.445312 0 L 3.445312 -13.96875 L 3.492188 -13.96875 L 8.765625 0 L 10.886719 0 L 16.160156 -13.992188 L 16.207031 -13.992188 L 16.207031 0 L 18.207031 0 L 18.207031 -16.976562 L 15.292969 -16.976562 L 9.851562 -2.3125 L 9.824219 -2.3125 L 4.359375 -16.976562 L 1.445312 -16.976562 Z M 1.445312 0 "/></g></g></g><g fill="#2787bf" fill-opacity="1"><g transform="translate(132.240002, 163.629438)"><g><path d="M 0.242188 0 L 2.335938 0 L 3.683594 -4.070312 L 10.933594 -4.070312 L 12.28125 0 L 14.351562 0 L 8.550781 -16.976562 L 6.042969 -16.976562 Z M 4.214844 -5.851562 L 7.296875 -15.101562 L 7.34375 -15.101562 L 10.378906 -5.851562 Z M 4.214844 -5.851562 "/></g></g></g><g fill="#2787bf" fill-opacity="1"><g transform="translate(152.469031, 163.629438)"><g><path d="M 1.445312 0 L 3.445312 0 L 3.445312 -6.308594 L 5.417969 -8.597656 L 10.425781 0 L 12.738281 0 L 6.695312 -10.113281 L 12.402344 -16.976562 L 9.945312 -16.976562 L 3.46875 -9.152344 L 3.445312 -9.152344 L 3.445312 -16.976562 L 1.445312 -16.976562 Z M 1.445312 0 "/></g></g></g><g fill="#2787bf" fill-opacity="1"><g transform="translate(171.084569, 163.629438)"><g><path d="M 0.242188 0 L 2.335938 0 L 3.683594 -4.070312 L 10.933594 -4.070312 L 12.28125 0 L 14.351562 0 L 8.550781 -16.976562 L 6.042969 -16.976562 Z M 4.214844 -5.851562 L 7.296875 -15.101562 L 7.34375 -15.101562 L 10.378906 -5.851562 Z M 4.214844 -5.851562 "/></g></g></g><g fill="#2787bf" fill-opacity="1"><g transform="translate(191.313599, 163.629438)"><g><path d="M 1.445312 0 L 3.445312 0 L 3.445312 -16.976562 L 1.445312 -16.976562 Z M 1.445312 0 "/></g></g></g><g fill="#2787bf" fill-opacity="1"><g transform="translate(201.837602, 163.629438)"><g/></g></g><g fill="#2787bf" fill-opacity="1"><g transform="translate(212.819163, 163.629438)"><g><path d="M 12.378906 0.457031 C 13.414062 0.457031 14.351562 -0.0976562 14.980469 -1.035156 L 13.96875 -2.214844 C 13.605469 -1.566406 13.171875 -1.226562 12.765625 -1.226562 C 12.28125 -1.226562 12.042969 -1.636719 11.898438 -2.214844 L 11.101562 -5.296875 C 10.835938 -6.285156 10.332031 -7.082031 9.464844 -7.539062 L 9.464844 -7.5625 C 12.066406 -8.019531 13.628906 -9.875 13.628906 -12.066406 C 13.628906 -14.980469 11.320312 -16.976562 8.019531 -16.976562 L 1.445312 -16.976562 L 1.445312 0 L 3.445312 0 L 3.445312 -7.25 L 6.695312 -7.25 C 7.828125 -7.25 8.742188 -6.382812 9.078125 -5.105469 L 10.066406 -1.492188 C 10.378906 -0.359375 11.078125 0.457031 12.378906 0.457031 Z M 3.445312 -9.03125 L 3.445312 -15.195312 L 7.921875 -15.195312 C 10.113281 -15.195312 11.632812 -13.992188 11.632812 -12.089844 C 11.632812 -10.285156 10.113281 -9.03125 7.921875 -9.03125 Z M 3.445312 -9.03125 "/></g></g></g><g fill="#2787bf" fill-opacity="1"><g transform="translate(233.433507, 163.629438)"><g><path d="M 0.242188 0 L 2.335938 0 L 3.683594 -4.070312 L 10.933594 -4.070312 L 12.28125 0 L 14.351562 0 L 8.550781 -16.976562 L 6.042969 -16.976562 Z M 4.214844 -5.851562 L 7.296875 -15.101562 L 7.34375 -15.101562 L 10.378906 -5.851562 Z M 4.214844 -5.851562 "/></g></g></g><g fill="#2787bf" fill-opacity="1"><g transform="translate(253.66254, 163.629438)"><g><path d="M 1.445312 0 L 3.445312 0 L 3.445312 -14.378906 L 3.492188 -14.378906 L 10.621094 0 L 13.4375 0 L 13.4375 -16.976562 L 11.414062 -16.976562 L 11.414062 -2.601562 L 11.367188 -2.601562 L 4.261719 -16.976562 L 1.445312 -16.976562 Z M 1.445312 0 "/></g></g></g><g fill="#2787bf" fill-opacity="1"><g transform="translate(274.18056, 163.629438)"><g><path d="M 8.667969 0.53125 C 11.367188 0.53125 13.605469 -0.84375 14.882812 -3.105469 L 14.90625 -3.105469 L 15.101562 0 L 16.785156 0 L 16.785156 -9.367188 L 6.71875 -9.367188 L 6.71875 -7.585938 L 14.761719 -7.585938 C 14.761719 -3.804688 12.378906 -1.277344 8.957031 -1.277344 C 5.296875 -1.277344 2.867188 -4.167969 2.867188 -8.476562 C 2.867188 -12.859375 5.152344 -15.726562 8.597656 -15.726562 C 10.765625 -15.726562 12.621094 -14.207031 13.316406 -11.945312 L 15.21875 -12.546875 C 14.28125 -15.507812 11.679688 -17.507812 8.621094 -17.507812 C 3.949219 -17.507812 0.84375 -13.894531 0.84375 -8.476562 C 0.84375 -3.082031 3.972656 0.53125 8.667969 0.53125 Z M 8.667969 0.53125 "/></g></g></g><g fill="#2787bf" fill-opacity="1"><g transform="translate(297.564328, 163.629438)"><g><path d="M 1.445312 0 L 11.824219 0 L 11.824219 -1.78125 L 3.394531 -1.78125 L 3.394531 -7.921875 L 10.621094 -7.921875 L 10.621094 -9.632812 L 3.394531 -9.632812 L 3.394531 -15.195312 L 11.582031 -15.195312 L 11.582031 -16.976562 L 1.445312 -16.976562 Z M 1.445312 0 "/></g></g></g><g fill="#2787bf" fill-opacity="1"><g transform="translate(315.625988, 163.629438)"><g><path d="M 12.378906 0.457031 C 13.414062 0.457031 14.351562 -0.0976562 14.980469 -1.035156 L 13.96875 -2.214844 C 13.605469 -1.566406 13.171875 -1.226562 12.765625 -1.226562 C 12.28125 -1.226562 12.042969 -1.636719 11.898438 -2.214844 L 11.101562 -5.296875 C 10.835938 -6.285156 10.332031 -7.082031 9.464844 -7.539062 L 9.464844 -7.5625 C 12.066406 -8.019531 13.628906 -9.875 13.628906 -12.066406 C 13.628906 -14.980469 11.320312 -16.976562 8.019531 -16.976562 L 1.445312 -16.976562 L 1.445312 0 L 3.445312 0 L 3.445312 -7.25 L 6.695312 -7.25 C 7.828125 -7.25 8.742188 -6.382812 9.078125 -5.105469 L 10.066406 -1.492188 C 10.378906 -0.359375 11.078125 0.457031 12.378906 0.457031 Z M 3.445312 -9.03125 L 3.445312 -15.195312 L 7.921875 -15.195312 C 10.113281 -15.195312 11.632812 -13.992188 11.632812 -12.089844 C 11.632812 -10.285156 10.113281 -9.03125 7.921875 -9.03125 Z M 3.445312 -9.03125 "/></g></g></g><g fill="#2787bf" fill-opacity="1"><g transform="translate(154.582494, 183.290306)"><g><path d="M 8.804688 -3.753906 L 4.628906 -3.753906 L 4.628906 -3.035156 L 7.886719 -3.035156 C 7.636719 -2.335938 7.226562 -1.769531 6.632812 -1.359375 C 6.042969 -0.933594 5.382812 -0.730469 4.664062 -0.730469 C 3.742188 -0.730469 2.964844 -1.050781 2.3125 -1.699219 C 1.675781 -2.347656 1.359375 -3.140625 1.359375 -4.050781 C 1.359375 -4.957031 1.675781 -5.738281 2.324219 -6.386719 C 2.964844 -7.023438 3.742188 -7.355469 4.664062 -7.355469 C 5.347656 -7.355469 5.972656 -7.152344 6.527344 -6.765625 C 7.09375 -6.375 7.496094 -5.867188 7.757812 -5.21875 L 8.628906 -5.21875 C 8.359375 -6.101562 7.851562 -6.8125 7.117188 -7.355469 C 6.386719 -7.898438 5.535156 -8.179688 4.582031 -8.179688 C 4.0625 -8.179688 3.554688 -8.0625 3.058594 -7.851562 C 2.550781 -7.636719 2.113281 -7.34375 1.734375 -6.964844 C 1.359375 -6.585938 1.0625 -6.152344 0.851562 -5.65625 C 0.636719 -5.148438 0.53125 -4.605469 0.53125 -4.039062 C 0.53125 -3.46875 0.636719 -2.925781 0.851562 -2.433594 C 1.0625 -1.925781 1.359375 -1.488281 1.734375 -1.109375 C 2.113281 -0.730469 2.550781 -0.4375 3.058594 -0.222656 C 3.554688 -0.0117188 4.097656 0.09375 4.664062 0.09375 C 5.632812 0.09375 6.503906 -0.210938 7.285156 -0.839844 C 8.0625 -1.476562 8.546875 -2.277344 8.722656 -3.257812 Z M 8.804688 -3.753906 "/></g></g></g><g fill="#2787bf" fill-opacity="1"><g transform="translate(169.880214, 183.290306)"><g><path d="M 6.695312 -2.65625 L 6.695312 -8.027344 L 5.867188 -8.027344 L 5.867188 -2.539062 C 5.867188 -2.207031 5.808594 -1.9375 5.691406 -1.710938 C 5.347656 -1.050781 4.6875 -0.71875 3.707031 -0.71875 C 3.070312 -0.71875 2.5625 -0.863281 2.183594 -1.144531 C 1.746094 -1.464844 1.535156 -1.925781 1.535156 -2.539062 L 1.535156 -8.027344 L 0.707031 -8.027344 L 0.707031 -2.65625 C 0.707031 -1.78125 0.992188 -1.097656 1.558594 -0.601562 C 2.089844 -0.128906 2.808594 0.105469 3.707031 0.105469 C 4.59375 0.105469 5.300781 -0.128906 5.84375 -0.601562 C 6.410156 -1.097656 6.695312 -1.78125 6.695312 -2.65625 Z M 6.695312 -2.65625 "/></g></g></g><g fill="#2787bf" fill-opacity="1"><g transform="translate(183.242601, 183.290306)"><g><path d="M 2.183594 -2.953125 L 3.648438 -6.644531 L 5.101562 -2.953125 Z M 7.164062 0 L 3.648438 -8.582031 L 0.117188 0 L 1.015625 0 L 1.878906 -2.183594 L 5.40625 -2.183594 L 6.269531 0 Z M 7.164062 0 "/></g></g></g><g fill="#2787bf" fill-opacity="1"><g transform="translate(196.486976, 183.290306)"><g><path d="M 1.710938 -3.964844 L 1.710938 -7.238281 L 3.578125 -7.238281 C 4.0625 -7.238281 4.449219 -7.082031 4.746094 -6.777344 C 5.027344 -6.46875 5.183594 -6.089844 5.183594 -5.621094 C 5.183594 -5.148438 5.027344 -4.757812 4.722656 -4.4375 C 4.414062 -4.121094 4.039062 -3.964844 3.578125 -3.964844 Z M 6.007812 -5.605469 C 6.007812 -6.292969 5.75 -6.882812 5.253906 -7.34375 C 4.769531 -7.792969 4.167969 -8.027344 3.457031 -8.027344 L 0.886719 -8.027344 L 0.886719 0 L 1.710938 0 L 1.710938 -3.175781 L 2.667969 -3.175781 L 5.027344 0 L 6.136719 0 L 3.660156 -3.175781 C 4.285156 -3.210938 4.816406 -3.433594 5.253906 -3.847656 C 5.75 -4.308594 6.007812 -4.898438 6.007812 -5.605469 Z M 6.007812 -5.605469 "/></g></g></g><g fill="#2787bf" fill-opacity="1"><g transform="translate(208.869897, 183.290306)"><g><path d="M 7.117188 -4.015625 C 7.117188 -4.59375 7 -5.125 6.789062 -5.621094 C 6.574219 -6.113281 6.28125 -6.539062 5.914062 -6.894531 C 5.535156 -7.25 5.101562 -7.519531 4.605469 -7.71875 C 4.097656 -7.921875 3.554688 -8.027344 2.988281 -8.027344 L 0.886719 -8.027344 L 0.886719 0 L 2.988281 0 C 3.554688 0 4.097656 -0.09375 4.605469 -0.296875 C 5.101562 -0.496094 5.535156 -0.777344 5.914062 -1.132812 C 6.28125 -1.488281 6.574219 -1.902344 6.789062 -2.394531 C 7 -2.890625 7.117188 -3.421875 7.117188 -4.015625 Z M 6.316406 -4.015625 C 6.316406 -3.09375 5.984375 -2.324219 5.347656 -1.722656 C 4.710938 -1.121094 3.929688 -0.828125 3.011719 -0.828125 L 1.710938 -0.828125 L 1.710938 -7.199219 L 3.011719 -7.199219 C 3.929688 -7.199219 4.710938 -6.894531 5.347656 -6.304688 C 5.984375 -5.691406 6.316406 -4.921875 6.316406 -4.015625 Z M 6.316406 -4.015625 "/></g></g></g><g fill="#2787bf" fill-opacity="1"><g transform="translate(222.480092, 183.290306)"><g><path d="M 2.183594 -2.953125 L 3.648438 -6.644531 L 5.101562 -2.953125 Z M 7.164062 0 L 3.648438 -8.582031 L 0.117188 0 L 1.015625 0 L 1.878906 -2.183594 L 5.40625 -2.183594 L 6.269531 0 Z M 7.164062 0 "/></g></g></g><g fill="#2787bf" fill-opacity="1"><g transform="translate(235.724464, 183.290306)"><g/></g></g><g fill="#2787bf" fill-opacity="1"><g transform="translate(244.873946, 183.290306)"><g><path d="M 6.125 -2.230469 C 6.125 -2.796875 5.984375 -3.28125 5.714844 -3.660156 C 5.429688 -4.039062 5.050781 -4.296875 4.59375 -4.425781 C 4.863281 -4.546875 5.101562 -4.757812 5.277344 -5.074219 C 5.359375 -5.21875 5.417969 -5.359375 5.464844 -5.511719 C 5.511719 -5.667969 5.535156 -5.878906 5.535156 -6.152344 C 5.535156 -6.410156 5.464844 -6.679688 5.347656 -6.941406 C 4.992188 -7.660156 4.226562 -8.027344 3.058594 -8.027344 L 0.886719 -8.027344 L 0.886719 0 L 3.339844 0 C 4.15625 0 4.804688 -0.175781 5.300781 -0.554688 C 5.546875 -0.742188 5.75 -0.992188 5.902344 -1.296875 C 6.042969 -1.59375 6.125 -1.902344 6.125 -2.230469 Z M 4.710938 -6.019531 C 4.710938 -5.582031 4.582031 -5.265625 4.320312 -5.050781 C 4.0625 -4.839844 3.71875 -4.734375 3.292969 -4.734375 L 1.710938 -4.734375 L 1.710938 -7.238281 L 3.058594 -7.238281 C 4.15625 -7.238281 4.710938 -6.824219 4.710938 -6.019531 Z M 5.300781 -2.394531 C 5.300781 -1.914062 5.136719 -1.523438 4.804688 -1.226562 C 4.484375 -0.933594 4.074219 -0.789062 3.578125 -0.789062 L 1.710938 -0.789062 L 1.710938 -3.90625 L 3.707031 -3.90625 C 4.121094 -3.90625 4.484375 -3.765625 4.804688 -3.484375 C 4.945312 -3.351562 5.0625 -3.199219 5.160156 -3.023438 C 5.253906 -2.832031 5.300781 -2.632812 5.300781 -2.394531 Z M 5.300781 -2.394531 "/></g></g></g><g fill="#2787bf" fill-opacity="1"><g transform="translate(257.197859, 183.290306)"><g><path d="M 7.957031 -4.039062 C 7.957031 -3.117188 7.625 -2.335938 6.988281 -1.699219 C 6.339844 -1.050781 5.558594 -0.730469 4.652344 -0.730469 C 3.742188 -0.730469 2.964844 -1.050781 2.324219 -1.699219 C 1.675781 -2.335938 1.359375 -3.117188 1.359375 -4.039062 C 1.359375 -4.933594 1.675781 -5.714844 2.324219 -6.363281 C 2.964844 -7 3.742188 -7.332031 4.652344 -7.332031 C 5.558594 -7.332031 6.339844 -7 6.988281 -6.363281 C 7.625 -5.714844 7.957031 -4.933594 7.957031 -4.039062 Z M 8.78125 -4.039062 C 8.78125 -4.605469 8.664062 -5.136719 8.453125 -5.644531 C 8.238281 -6.136719 7.945312 -6.574219 7.566406 -6.953125 C 7.1875 -7.320312 6.753906 -7.613281 6.257812 -7.828125 C 5.75 -8.039062 5.21875 -8.15625 4.652344 -8.15625 C 4.085938 -8.15625 3.542969 -8.039062 3.046875 -7.828125 C 2.550781 -7.613281 2.113281 -7.320312 1.734375 -6.953125 C 1.359375 -6.574219 1.0625 -6.136719 0.851562 -5.644531 C 0.636719 -5.136719 0.53125 -4.605469 0.53125 -4.039062 C 0.53125 -3.46875 0.636719 -2.925781 0.851562 -2.433594 C 1.0625 -1.925781 1.359375 -1.488281 1.734375 -1.109375 C 2.113281 -0.730469 2.550781 -0.4375 3.046875 -0.222656 C 3.542969 -0.0117188 4.085938 0.09375 4.652344 0.09375 C 5.21875 0.09375 5.75 -0.0117188 6.257812 -0.222656 C 6.753906 -0.4375 7.1875 -0.730469 7.566406 -1.109375 C 7.945312 -1.488281 8.238281 -1.925781 8.453125 -2.433594 C 8.664062 -2.925781 8.78125 -3.46875 8.78125 -4.039062 Z M 8.78125 -4.039062 "/></g></g></g><g fill="#2787bf" fill-opacity="1"><g transform="translate(272.471978, 183.290306)"><g><path d="M 3.105469 -3.777344 C 4.144531 -3.53125 4.851562 -3.257812 5.230469 -2.953125 C 5.488281 -2.738281 5.621094 -2.46875 5.621094 -2.136719 C 5.621094 -1.804688 5.546875 -1.535156 5.40625 -1.347656 C 5.050781 -0.851562 4.414062 -0.601562 3.519531 -0.601562 C 2.265625 -0.601562 1.558594 -1.027344 1.40625 -1.878906 L 0.4375 -1.878906 C 0.71875 -0.519531 1.746094 0.152344 3.519531 0.152344 C 4.308594 0.152344 4.96875 -0.0117188 5.5 -0.367188 C 6.136719 -0.777344 6.46875 -1.394531 6.46875 -2.195312 C 6.46875 -2.855469 6.210938 -3.363281 5.691406 -3.71875 C 5.324219 -3.976562 4.734375 -4.214844 3.917969 -4.425781 C 3.09375 -4.640625 2.5625 -4.816406 2.3125 -4.945312 C 1.769531 -5.21875 1.5 -5.59375 1.511719 -6.089844 C 1.511719 -6.351562 1.558594 -6.574219 1.675781 -6.742188 C 1.984375 -7.199219 2.527344 -7.4375 3.304688 -7.4375 C 4.402344 -7.4375 5.027344 -7.082031 5.195312 -6.398438 L 6.089844 -6.398438 C 5.796875 -7.554688 4.863281 -8.144531 3.304688 -8.144531 C 2.597656 -8.144531 1.972656 -7.957031 1.453125 -7.578125 C 0.921875 -7.199219 0.648438 -6.644531 0.648438 -5.890625 C 0.648438 -4.863281 1.476562 -4.15625 3.105469 -3.777344 Z M 3.105469 -3.777344 "/></g></g></g><g fill="#2787bf" fill-opacity="1"><g transform="translate(285.20892, 183.290306)"><g><path d="M 8.78125 -4 C 8.78125 -4.570312 8.664062 -5.101562 8.453125 -5.605469 C 8.238281 -6.101562 7.945312 -6.539062 7.566406 -6.917969 C 7.1875 -7.296875 6.753906 -7.589844 6.257812 -7.804688 C 5.75 -8.015625 5.21875 -8.132812 4.652344 -8.132812 C 4.085938 -8.132812 3.542969 -8.015625 3.046875 -7.804688 C 2.550781 -7.589844 2.113281 -7.296875 1.734375 -6.917969 C 1.359375 -6.539062 1.0625 -6.101562 0.851562 -5.605469 C 0.636719 -5.101562 0.53125 -4.570312 0.53125 -4 C 0.53125 -3.433594 0.636719 -2.890625 0.851562 -2.394531 C 1.0625 -1.902344 1.359375 -1.464844 1.734375 -1.085938 C 2.113281 -0.707031 2.550781 -0.414062 3.046875 -0.199219 C 3.542969 0.0117188 4.085938 0.117188 4.652344 0.117188 C 4.980469 0.117188 5.3125 0.0820312 5.632812 0 L 8.902344 0 L 8.902344 -0.671875 L 7.695312 -0.671875 C 7.402344 -0.601562 7.09375 -0.53125 6.765625 -0.460938 C 7.058594 -0.636719 7.332031 -0.851562 7.566406 -1.085938 C 7.945312 -1.464844 8.238281 -1.902344 8.453125 -2.394531 C 8.664062 -2.890625 8.78125 -3.433594 8.78125 -4 Z M 7.957031 -4 C 7.957031 -3.09375 7.625 -2.3125 6.988281 -1.675781 C 6.339844 -1.027344 5.558594 -0.707031 4.652344 -0.707031 C 3.742188 -0.707031 2.964844 -1.027344 2.324219 -1.675781 C 1.675781 -2.3125 1.359375 -3.09375 1.359375 -4 C 1.359375 -4.910156 1.675781 -5.691406 2.324219 -6.339844 C 2.964844 -6.976562 3.742188 -7.308594 4.652344 -7.308594 C 5.558594 -7.308594 6.339844 -6.976562 6.988281 -6.339844 C 7.625 -5.691406 7.957031 -4.910156 7.957031 -4 Z M 7.957031 -4 "/></g></g></g><g fill="#2787bf" fill-opacity="1"><g transform="translate(300.424033, 183.290306)"><g><path d="M 6.695312 -2.65625 L 6.695312 -8.027344 L 5.867188 -8.027344 L 5.867188 -2.539062 C 5.867188 -2.207031 5.808594 -1.9375 5.691406 -1.710938 C 5.347656 -1.050781 4.6875 -0.71875 3.707031 -0.71875 C 3.070312 -0.71875 2.5625 -0.863281 2.183594 -1.144531 C 1.746094 -1.464844 1.535156 -1.925781 1.535156 -2.539062 L 1.535156 -8.027344 L 0.707031 -8.027344 L 0.707031 -2.65625 C 0.707031 -1.78125 0.992188 -1.097656 1.558594 -0.601562 C 2.089844 -0.128906 2.808594 0.105469 3.707031 0.105469 C 4.59375 0.105469 5.300781 -0.128906 5.84375 -0.601562 C 6.410156 -1.097656 6.695312 -1.78125 6.695312 -2.65625 Z M 6.695312 -2.65625 "/></g></g></g><g fill="#2787bf" fill-opacity="1"><g transform="translate(313.786417, 183.290306)"><g><path d="M 5.65625 0 L 5.65625 -0.765625 L 1.710938 -0.765625 L 1.710938 -3.625 L 5.535156 -3.625 L 5.535156 -4.402344 L 1.710938 -4.402344 L 1.710938 -7.261719 L 5.65625 -7.261719 L 5.65625 -8.027344 L 0.886719 -8.027344 L 0.886719 0 Z M 5.65625 0 "/></g></g></g><g fill="#2787bf" fill-opacity="1"><g transform="translate(326.287336, 183.290306)"><g><path d="M 3.105469 -3.777344 C 4.144531 -3.53125 4.851562 -3.257812 5.230469 -2.953125 C 5.488281 -2.738281 5.621094 -2.46875 5.621094 -2.136719 C 5.621094 -1.804688 5.546875 -1.535156 5.40625 -1.347656 C 5.050781 -0.851562 4.414062 -0.601562 3.519531 -0.601562 C 2.265625 -0.601562 1.558594 -1.027344 1.40625 -1.878906 L 0.4375 -1.878906 C 0.71875 -0.519531 1.746094 0.152344 3.519531 0.152344 C 4.308594 0.152344 4.96875 -0.0117188 5.5 -0.367188 C 6.136719 -0.777344 6.46875 -1.394531 6.46875 -2.195312 C 6.46875 -2.855469 6.210938 -3.363281 5.691406 -3.71875 C 5.324219 -3.976562 4.734375 -4.214844 3.917969 -4.425781 C 3.09375 -4.640625 2.5625 -4.816406 2.3125 -4.945312 C 1.769531 -5.21875 1.5 -5.59375 1.511719 -6.089844 C 1.511719 -6.351562 1.558594 -6.574219 1.675781 -6.742188 C 1.984375 -7.199219 2.527344 -7.4375 3.304688 -7.4375 C 4.402344 -7.4375 5.027344 -7.082031 5.195312 -6.398438 L 6.089844 -6.398438 C 5.796875 -7.554688 4.863281 -8.144531 3.304688 -8.144531 C 2.597656 -8.144531 1.972656 -7.957031 1.453125 -7.578125 C 0.921875 -7.199219 0.648438 -6.644531 0.648438 -5.890625 C 0.648438 -4.863281 1.476562 -4.15625 3.105469 -3.777344 Z M 3.105469 -3.777344 "/></g></g></g></svg>